<svg version="1" xmlns="http://www.w3.org/2000/svg" width="682.667" height="682.667" viewBox="0 0 512.000000 512.000000"><path d="M232 1.1c-49.1 4.7-98.1 24.6-136.6 55.7C35.5 105 0 179.2 0 256c0 57.7 20.4 115.5 56.8 160.6C105 476.5 179.2 512 256 512c57.7 0 115.5-20.4 160.6-56.8C476.5 407 512 332.8 512 256c0-57.7-20.4-115.5-56.8-160.6C411.9 41.6 348.1 7.5 278.5 1c-12.5-1.1-34-1.1-46.5.1zm59 13.4c99.1 15 178 86.8 201.9 183.6 5.2 21.3 6.6 32.9 6.6 57.9 0 16.4-.5 25.6-1.8 34C481.1 399 399 481.1 290 497.7c-16 2.4-52 2.4-68 0C146 486.1 81.8 442.5 44.2 377 11.7 320.3 3.4 251.8 21.4 189.2c15-51.9 45.4-96.1 88.6-128.6 35-26.3 76.4-42.4 122.5-47.6 11.5-1.3 46.1-.4 58.5 1.5z"/><path d="M237.5 18.6c-31.7 3.2-57.6 10.2-84 22.8-48.9 23.4-87.4 61.5-111 110.1-11.4 23.4-18 44.6-22.1 70.7-2.5 15.8-2.5 51.8 0 67.6 4.1 26.1 10.7 47.3 22.1 70.7 34.4 70.8 100 118.6 179.7 131.1 15.8 2.5 51.8 2.5 67.6 0 79.7-12.5 145.3-60.3 179.7-131.1 11.4-23.4 18-44.6 22.1-70.7 2.5-15.8 2.5-51.8 0-67.6-4.1-26.1-10.7-47.3-22.1-70.7-34.3-70.5-100.2-118.7-179-131-9.6-1.5-44.6-2.8-53-1.9zm31.5 94.9c0 .2 16.8 52.6 37.4 116.2 20.5 63.7 37.6 116.8 38 118l.7 2.3h-30.6l-7-23.3c-3.8-12.7-8-26.7-9.3-31l-2.3-7.7h-79.8l-2.4 7.7c-1.3 4.3-5.5 18.3-9.2 31l-6.9 23.3h-15.4c-13.4 0-15.3-.2-14.8-1.5.3-.9 17.5-54.2 38.3-118.5l37.6-117h12.9c7 0 12.8.2 12.8.5zM352 391v8H160v-16h192v8z"/><path d="M240.1 207.6c-8.4 28.4-15.6 52.4-15.8 53.5-.5 1.8.5 1.9 31.6 1.9 17.6 0 32.1-.3 32.1-.7 0-1.4-31.2-104.8-31.8-105.5-.4-.4-7.6 22.5-16.1 50.8z"/></svg>